<?xml version="1.0" encoding="UTF-8" standalone="no"?>
<!-- Created with Inkscape (http://www.inkscape.org/) -->

<svg
   width="23.131958"
   height="20.582489"
   viewBox="0 0 23.131958 20.582489"
   version="1.1"
   id="SVGRoot"
   sodipodi:docname="ContainerPage.svg"
   xml:space="preserve"
   inkscape:version="1.2.2 (b0a8486541, 2022-12-01)"
   inkscape:export-filename="ContainerPage.png"
   inkscape:export-xdpi="96"
   inkscape:export-ydpi="96"
   xmlns:inkscape="http://www.inkscape.org/namespaces/inkscape"
   xmlns:sodipodi="http://sodipodi.sourceforge.net/DTD/sodipodi-0.dtd"
   xmlns="http://www.w3.org/2000/svg"
   xmlns:svg="http://www.w3.org/2000/svg"><sodipodi:namedview
     id="namedview823"
     pagecolor="#505050"
     bordercolor="#eeeeee"
     borderopacity="1"
     inkscape:showpageshadow="0"
     inkscape:pageopacity="0"
     inkscape:pagecheckerboard="0"
     inkscape:deskcolor="#505050"
     inkscape:document-units="px"
     showgrid="false"
     inkscape:zoom="0.42445272"
     inkscape:cx="855.21893"
     inkscape:cy="448.81324"
     inkscape:window-width="1280"
     inkscape:window-height="692"
     inkscape:window-x="0"
     inkscape:window-y="0"
     inkscape:window-maximized="1"
     inkscape:current-layer="g44578"
     showguides="true" /><defs
     id="defs818"><filter
       id="a-31"
       height="1"
       width="1"
       x="0"
       y="0"><feColorMatrix
         in="SourceGraphic"
         type="matrix"
         values="0 0 0 0 1 0 0 0 0 1 0 0 0 0 1 0 0 0 1 0"
         id="feColorMatrix235487" /></filter><filter
       id="a-6"
       height="1"
       width="1"
       x="0"
       y="0"><feColorMatrix
         in="SourceGraphic"
         type="matrix"
         values="0 0 0 0 1 0 0 0 0 1 0 0 0 0 1 0 0 0 1 0"
         id="feColorMatrix474863" /></filter></defs><g
     inkscape:label="Layer 1"
     inkscape:groupmode="layer"
     id="layer1"
     transform="translate(-537.35614,-27.976971)"><g
       id="g44578"
       transform="matrix(1.4464455,0,0,1.4464455,-2.2322275,-2.2322275)"
       style="stroke-width:0.69135"><g
         style="display:inline;fill:none;stroke:#fcfcfc;stroke-width:1.81679;stroke-dasharray:none;stroke-opacity:1"
         id="g7288-2-3-0"
         transform="matrix(0.80682889,0,0,0.71790432,371.35858,19.385127)"><path
           opacity="0.1"
           d="m 14,17.5 c 0,-1.4045 0,-2.1067 0.3371,-2.6111 0.1459,-0.2184 0.3334,-0.4059 0.5518,-0.5518 C 15.3933,14 16.0955,14 17.5,14 v 0 0 c 1.4045,0 2.1067,0 2.6111,0.3371 0.2184,0.1459 0.4059,0.3334 0.5518,0.5518 C 21,15.3933 21,16.0955 21,17.5 v 0 0 c 0,1.4045 0,2.1067 -0.3371,2.6111 -0.1459,0.2184 -0.3334,0.4059 -0.5518,0.5518 C 19.6067,21 18.9045,21 17.5,21 v 0 0 C 16.0955,21 15.3933,21 14.8889,20.6629 14.6705,20.517 14.483,20.3295 14.3371,20.1111 14,19.6067 14,18.9045 14,17.5 Z"
           fill="#323232"
           id="path7258-26-3-8"
           style="stroke:#fcfcfc;stroke-width:1.81679;stroke-dasharray:none;stroke-opacity:1"
           sodipodi:insensitive="true" /><path
           opacity="0.1"
           d="M 3,17.5 C 3,16.0955 3,15.3933 3.33706,14.8889 3.48298,14.6705 3.67048,14.483 3.88886,14.3371 4.39331,14 5.09554,14 6.5,14 v 0 0 c 1.40446,0 2.10669,0 2.61114,0.3371 0.21838,0.1459 0.40588,0.3334 0.5518,0.5518 C 10,15.3933 10,16.0955 10,17.5 v 0 0 c 0,1.4045 0,2.1067 -0.33706,2.6111 C 9.51702,20.3295 9.32952,20.517 9.11114,20.6629 8.60669,21 7.90446,21 6.5,21 v 0 0 C 5.09554,21 4.39331,21 3.88886,20.6629 3.67048,20.517 3.48298,20.3295 3.33706,20.1111 3,19.6067 3,18.9045 3,17.5 Z"
           fill="#323232"
           id="path7260-4-8-9"
           style="stroke:#fcfcfc;stroke-width:1.81679;stroke-dasharray:none;stroke-opacity:1"
           sodipodi:insensitive="true" /><path
           opacity="0.1"
           d="M 3,6.5 C 3,5.09554 3,4.39331 3.33706,3.88886 3.48298,3.67048 3.67048,3.48298 3.88886,3.33706 4.39331,3 5.09554,3 6.5,3 V 3 3 C 7.90446,3 8.60669,3 9.11114,3.33706 9.32952,3.48298 9.51702,3.67048 9.66294,3.88886 10,4.39331 10,5.09554 10,6.5 v 0 0 C 10,7.90446 10,8.60669 9.66294,9.11114 9.51702,9.32952 9.32952,9.51702 9.11114,9.66294 8.60669,10 7.90446,10 6.5,10 v 0 0 C 5.09554,10 4.39331,10 3.88886,9.66294 3.67048,9.51702 3.48298,9.32952 3.33706,9.11114 3,8.60669 3,7.90446 3,6.5 Z"
           fill="#323232"
           id="path7262-1-5-2"
           style="stroke:#fcfcfc;stroke-width:1.81679;stroke-dasharray:none;stroke-opacity:1"
           sodipodi:insensitive="true" /><path
           d="m 14,17.5 c 0,-1.4045 0,-2.1067 0.3371,-2.6111 0.1459,-0.2184 0.3334,-0.4059 0.5518,-0.5518 C 15.3933,14 16.0955,14 17.5,14 v 0 0 c 1.4045,0 2.1067,0 2.6111,0.3371 0.2184,0.1459 0.4059,0.3334 0.5518,0.5518 C 21,15.3933 21,16.0955 21,17.5 v 0 0 c 0,1.4045 0,2.1067 -0.3371,2.6111 -0.1459,0.2184 -0.3334,0.4059 -0.5518,0.5518 C 19.6067,21 18.9045,21 17.5,21 v 0 0 C 16.0955,21 15.3933,21 14.8889,20.6629 14.6705,20.517 14.483,20.3295 14.3371,20.1111 14,19.6067 14,18.9045 14,17.5 Z"
           stroke="#323232"
           stroke-width="11.9213"
           id="path7264-2-1-2"
           style="stroke:#fcfcfc;stroke-width:1.81679;stroke-dasharray:none;stroke-opacity:1"
           sodipodi:insensitive="true" /><path
           d="M 3,17.5 C 3,16.0955 3,15.3933 3.33706,14.8889 3.48298,14.6705 3.67048,14.483 3.88886,14.3371 4.39331,14 5.09554,14 6.5,14 v 0 0 c 1.40446,0 2.10669,0 2.61114,0.3371 0.21838,0.1459 0.40588,0.3334 0.5518,0.5518 C 10,15.3933 10,16.0955 10,17.5 v 0 0 c 0,1.4045 0,2.1067 -0.33706,2.6111 C 9.51702,20.3295 9.32952,20.517 9.11114,20.6629 8.60669,21 7.90446,21 6.5,21 v 0 0 C 5.09554,21 4.39331,21 3.88886,20.6629 3.67048,20.517 3.48298,20.3295 3.33706,20.1111 3,19.6067 3,18.9045 3,17.5 Z"
           stroke="#323232"
           stroke-width="11.9213"
           id="path7266-88-0-3"
           style="stroke:#fcfcfc;stroke-width:1.81679;stroke-dasharray:none;stroke-opacity:1"
           sodipodi:insensitive="true" /><path
           d="M 3,6.5 C 3,5.09554 3,4.39331 3.33706,3.88886 3.48298,3.67048 3.67048,3.48298 3.88886,3.33706 4.39331,3 5.09554,3 6.5,3 V 3 3 C 7.90446,3 8.60669,3 9.11114,3.33706 9.32952,3.48298 9.51702,3.67048 9.66294,3.88886 10,4.39331 10,5.09554 10,6.5 v 0 0 C 10,7.90446 10,8.60669 9.66294,9.11114 9.51702,9.32952 9.32952,9.51702 9.11114,9.66294 8.60669,10 7.90446,10 6.5,10 v 0 0 C 5.09554,10 4.39331,10 3.88886,9.66294 3.67048,9.51702 3.48298,9.32952 3.33706,9.11114 3,8.60669 3,7.90446 3,6.5 Z"
           stroke="#323232"
           stroke-width="11.9213"
           id="path7268-9-8-1"
           style="stroke:#fcfcfc;stroke-width:1.81679;stroke-dasharray:none;stroke-opacity:1"
           sodipodi:insensitive="true" /><path
           d="m 14,6.5 h 7"
           stroke="#323232"
           stroke-width="11.9213"
           stroke-linecap="round"
           stroke-linejoin="round"
           id="path7270-28-7-8"
           style="stroke:#fcfcfc;stroke-width:1.81679;stroke-dasharray:none;stroke-opacity:1"
           sodipodi:insensitive="true" /><path
           d="m 17.5,3 v 7"
           stroke="#323232"
           stroke-width="11.9213"
           stroke-linecap="round"
           stroke-linejoin="round"
           id="path7272-8-6-3"
           style="stroke:#fcfcfc;stroke-width:1.81679;stroke-dasharray:none;stroke-opacity:1"
           sodipodi:insensitive="true" /></g></g></g></svg>
